# xmcd
#
# Track frame offsets:
#	150
#	12347
#	21397
#	34450
#	48842
#	58667
#	70320
#	83687
#	96090
#	109135
#	125172
#	140070
#	150472
#	162960
#	174980
#	185307
#	197320
#	212082
#	225917
#	239187
#
# Disc length: 3337 seconds
# Revision: 3
# Processed by: cddbd v1.5.2PL0 Copyright (c) Steve Scherf et al.
# Submitted via: dBpowerAMP V12.0
#
DISCID=120d0714
DTITLE=Various Artist - History of Country Music: Country Gospel Favorites
DYEAR=1969
DGENRE=Country
TTITLE0=The Statler Brothers - Oh Happy Day the Statler Brothers
TTITLE1=Tennessee Ernie Ford - How Great Thou Art Tennessee Ernie Ford
TTITLE2=Loretta Lynn - (There'll Be) Peace in the Valley Loretta Lynn
TTITLE3=Willie Nelson - Family Bible - Willie Nelson
TTITLE4=Eddy Arnold - Praise Him, Praise Him - Eddy Arnold
TTITLE5=Dolly Parton - Wings of a Dove - Dolly Parton
TTITLE6=Merle Haggard - On teh Jericho Road - Merle Haggard
TTITLE7=Conway Twitty - Who Will Pray for Me - Conway Twitty
TTITLE8=The Blackwood Brothers Quartet - Precious Memories - The Blackwood Brothers Quartet
TTITLE9=Dottie West - His Eye On The Sparrow - Dottie West
TTITLE10=The Browns - Whispering Hope - The Browns
TTITLE11=Jim Reeves - In The Garden - Jim Reeves
TTITLE12=Porter Wagoner and The Blackwood Brothers Quartet - If Jesus Came to Your House - Porter Wagoner and The Blackwood Brothers Quartet
TTITLE13=Chet Atkins - Amazing Grace - Chet Atkins
TTITLE14=Kitty Wells - Dust on the Bible - Kitty Wells
TTITLE15=Sons of the Pioneers - The Place Where I Worship (Is The Wide Open Spaces) - Sons of the Pioneers
TTITLE16=Cristy Lane - One Day At A Time
TTITLE17=Floyd Cramer - The World is Not My Home - I'll Fly Away - Down in the Heart - Do Lord - Give me World a Smile - Floyd Cramer
TTITLE18=Stuart Hamblen - This Ole House - Stuart Hamblen
TTITLE19=Andy Griffith - Turn Your Radio On - Andy Griffith
EXTD=
EXTT0=
EXTT1=
EXTT2=
EXTT3=
EXTT4=
EXTT5=
EXTT6=
EXTT7=
EXTT8=
EXTT9=
EXTT10=
EXTT11=
EXTT12=
EXTT13=
EXTT14=
EXTT15=
EXTT16=
EXTT17=
EXTT18=
EXTT19=
PLAYORDER=
